<svg width="100" height="100" viewBox="0 0 100 100" fill="none" xmlns="http://www.w3.org/2000/svg">
    <circle cx="50" cy="50" r="48" stroke="#349920" strokeWidth="3" fill="none" />
    <g transform="translate(15, 15)">
        <circle cx="15" cy="15" r="10" fill="#febd59" />
        <rect x="14" y="-2" width="2" height="8" fill="#febd59" transform="rotate(0, 15, 15)" />
        <rect x="14" y="-2" width="2" height="8" fill="#febd59" transform="rotate(45, 15, 15)" />
        <rect x="14" y="-2" width="2" height="8" fill="#febd59" transform="rotate(90, 15, 15)" />
        <rect x="14" y="-2" width="2" height="8" fill="#febd59" transform="rotate(135, 15, 15)" />
        <rect x="14" y="-2" width="2" height="8" fill="#febd59" transform="rotate(180, 15, 15)" />
        <rect x="14" y="-2" width="2" height="8" fill="#febd59" transform="rotate(225, 15, 15)" />
        <rect x="14" y="-2" width="2" height="8" fill="#febd59" transform="rotate(270, 15, 15)" />
        <rect x="14" y="-2" width="2" height="8" fill="#febd59" transform="rotate(315, 15, 15)" />
    </g>
    <path d="M20 50 L50 25 L80 50 L80 80 L20 80 Z" fill="white" />
    <path d="M50 25 L85 53 L75 58 L50 38 L25 58 L15 53 Z" fill="#349920" />
    <path d="M55 35 L80 50 L75 55 L50 40 Z" fill="#febd59" opacity="0.8" />
    <line x1="55" y1="35" x2="80" y2="50" stroke="#fff" strokeWidth="0.5" />
    <line x1="60" y1="34" x2="85" y2="49" stroke="#fff" strokeWidth="0.5" />
    <rect x="35" y="60" width="10" height="10" fill="#349920" rx="1" />
    <rect x="55" y="60" width="10" height="10" fill="#349920" rx="1" />
    <path d="M10 65 Q 25 95 90 70 Q 70 85 10 65" fill="#349920" />
</svg>
